<svg width="1584" height="396" viewBox="0 0 1584 396" fill="none" xmlns="http://www.w3.org/2000/svg">
<rect width="1584" height="396" rx="32" fill="white"/>
<circle cx="1556" cy="248" r="12" fill="#E2E8F0"/>
<circle cx="1516" cy="288" r="12" fill="#E2E8F0"/>
<circle cx="1556" cy="288" r="12" fill="#CBD5E1"/>
<circle cx="1476" cy="328" r="12" fill="#E2E8F0"/>
<circle cx="1516" cy="328" r="12" fill="#CBD5E1"/>
<circle cx="1556" cy="328" r="12" fill="#94A3B8"/>
<circle cx="1436" cy="368" r="12" fill="#E2E8F0"/>
<circle cx="1476" cy="368" r="12" fill="#CBD5E1"/>
<circle cx="1516" cy="368" r="12" fill="#94A3B8"/>
<circle cx="1556" cy="368" r="12" fill="#64748B"/>
<circle cx="28" cy="28" r="12" fill="#64748B"/>
<circle cx="68" cy="28" r="12" fill="#94A3B8"/>
<circle cx="108" cy="28" r="12" fill="#CBD5E1"/>
<circle cx="148" cy="28" r="12" fill="#E2E8F0"/>
<circle cx="28" cy="68" r="12" fill="#94A3B8"/>
<circle cx="68" cy="68" r="12" fill="#CBD5E1"/>
<circle cx="108" cy="68" r="12" fill="#E2E8F0"/>
<circle cx="28" cy="108" r="12" fill="#CBD5E1"/>
<circle cx="68" cy="108" r="12" fill="#E2E8F0"/>
<circle cx="28" cy="148" r="12" fill="#E2E8F0"/>
<path d="M288.468 124.879H101.531C91.4929 124.879 83.3551 133.017 83.3551 143.056V252.939C83.3551 262.977 91.4929 271.115 101.531 271.115H288.468C298.506 271.115 306.644 262.977 306.644 252.939V143.056C306.644 133.017 298.506 124.879 288.468 124.879Z" fill="white" stroke="#6D28D9" stroke-width="15.9995" stroke-linecap="round" stroke-linejoin="bevel"/>
<path d="M143.681 225.391H107.298V224.431H108.546C110.21 224.431 111.618 223.855 112.77 222.704C113.986 221.488 114.626 220.048 114.69 218.384V163.569C107.97 164.273 102.882 166.161 99.4264 169.232C96.4825 171.856 94.1145 175.216 92.3226 179.312L91.3626 178.928C92.6426 172.016 95.9385 166.833 101.25 163.377C106.626 159.921 113.346 158.193 121.41 158.193H143.682C155.714 158.193 165.089 161.169 171.809 167.121C178.592 173.008 181.984 181.232 181.984 191.793C181.984 202.353 178.592 210.608 171.809 216.559C165.025 222.447 155.649 225.391 143.682 225.391L143.681 225.391ZM134.369 220.592H141.761C147.713 220.592 152.385 218.064 155.777 213.008C159.169 207.888 160.865 200.816 160.865 191.792C160.865 182.768 159.169 175.728 155.777 170.672C152.385 165.553 147.713 162.993 141.761 162.993L134.369 163.185V220.592Z" fill="#0F172A"/>
<path d="M173.249 153.777C177.793 151.345 182.241 150.129 186.593 150.129C191.009 150.129 195.041 151.057 198.689 152.913C205.985 156.689 212.224 162.865 217.408 171.44L234.592 199.376L263.104 156.85H263.968L274.816 213.009C276.992 224.528 280.223 232.528 284.511 237.008C287.903 240.528 292.223 242.288 297.471 242.288C297.919 242.288 298.399 242.288 298.911 242.288V243.248C294.943 244.912 290.815 245.744 286.527 245.744C278.016 245.744 270.624 242.416 264.351 235.76C259.104 230.256 255.424 222.481 253.312 212.433L248.896 192.177L232.48 216.56C231.392 218.096 230.432 219.952 229.6 222.128C228.768 224.304 228.384 226.16 228.448 227.696H227.584L204.258 187.761L199.458 220.016V220.4C199.458 221.424 199.81 222.384 200.514 223.28C201.282 224.112 202.178 224.528 203.202 224.528H204.642V225.392H183.619V224.432H185.155C186.883 224.432 188.386 223.92 189.666 222.896C191.01 221.808 191.842 220.368 192.162 218.576L198.786 177.394C195.522 171.698 191.906 166.642 187.938 162.226C183.395 157.234 178.851 154.738 174.307 154.738C174.051 154.738 173.795 154.738 173.539 154.738L173.249 153.777Z" fill="#0F172A"/>
<path d="M380.74 254C380.167 254 379.88 253.713 379.88 253.14L380.224 134.976C380.224 134.517 380.453 134.288 380.912 134.288L413.076 134.116C419.383 134.001 425.116 135.492 430.276 138.588C435.551 141.684 439.736 145.869 442.832 151.144C445.928 156.304 447.476 162.037 447.476 168.344V217.708C447.476 224.359 445.871 230.436 442.66 235.94C439.449 241.329 435.149 245.629 429.76 248.84C424.371 252.051 418.293 253.713 411.528 253.828L380.74 254ZM400.864 232.844H411.528C415.771 232.844 419.325 231.353 422.192 228.372C425.173 225.391 426.664 221.836 426.664 217.708V168.172C426.664 164.503 425.288 161.349 422.536 158.712C419.899 155.96 416.745 154.641 413.076 154.756L401.036 154.928L400.864 232.844ZM493.873 255.72C487.796 255.72 482.177 254.172 477.017 251.076C471.857 247.865 467.729 243.623 464.633 238.348C461.652 233.073 460.161 227.283 460.161 220.976L460.505 134.976C460.505 134.517 460.734 134.288 461.193 134.288H480.457C480.916 134.288 481.145 134.517 481.145 134.976V220.976C481.145 224.875 482.349 228.2 484.757 230.952C487.28 233.589 490.318 234.908 493.873 234.908C497.542 234.908 500.581 233.589 502.989 230.952C505.512 228.2 506.773 224.875 506.773 220.976V134.976C506.773 134.517 507.002 134.288 507.461 134.288H526.725C527.184 134.288 527.413 134.517 527.413 134.976L527.757 220.976C527.757 227.397 526.209 233.245 523.113 238.52C520.132 243.795 516.061 247.98 510.901 251.076C505.856 254.172 500.18 255.72 493.873 255.72ZM544.606 254C543.689 254 543.23 253.599 543.23 252.796L543.058 135.664C543.058 134.747 543.517 134.288 544.434 134.288H559.914L588.982 202.056L588.122 135.664C588.122 134.747 588.638 134.288 589.67 134.288H606.698C607.386 134.288 607.73 134.747 607.73 135.664L607.902 252.968C607.902 253.656 607.616 254 607.042 254H591.906L562.15 190.704L563.354 252.624C563.354 253.541 562.838 254 561.806 254H544.606ZM656.039 255.72C649.847 255.72 644.229 254.172 639.183 251.076C634.138 247.98 630.067 243.852 626.971 238.692C623.99 233.417 622.499 227.569 622.499 221.148V166.624C622.499 160.432 623.99 154.756 626.971 149.596C630.067 144.321 634.138 140.136 639.183 137.04C644.343 133.944 649.962 132.396 656.039 132.396C662.346 132.396 668.022 133.944 673.067 137.04C678.227 140.021 682.298 144.092 685.279 149.252C688.261 154.412 689.751 160.203 689.751 166.624V174.536C689.751 174.995 689.465 175.224 688.891 175.224H669.627C669.169 175.224 668.939 174.995 668.939 174.536V168C668.939 163.643 667.678 160.031 665.155 157.164C662.747 154.297 659.709 152.864 656.039 152.864C652.714 152.864 649.733 154.24 647.095 156.992C644.573 159.744 643.311 162.955 643.311 166.624V221.148C643.311 224.932 644.573 228.2 647.095 230.952C649.618 233.589 652.599 234.908 656.039 234.908C659.709 234.908 662.747 233.589 665.155 230.952C667.678 228.315 668.939 225.047 668.939 221.148V212.72H656.899C656.326 212.72 656.039 212.433 656.039 211.86V192.596C656.039 192.023 656.326 191.736 656.899 191.736H689.063C689.522 191.736 689.751 192.023 689.751 192.596V221.148C689.751 227.569 688.203 233.417 685.107 238.692C682.126 243.852 678.113 247.98 673.067 251.076C668.022 254.172 662.346 255.72 656.039 255.72ZM704.405 254C703.946 254 703.717 253.713 703.717 253.14L703.889 134.976C703.889 134.517 704.118 134.288 704.577 134.288H759.789C760.248 134.288 760.477 134.575 760.477 135.148V154.412C760.477 154.871 760.248 155.1 759.789 155.1H724.529V181.932H759.789C760.248 181.932 760.477 182.161 760.477 182.62L760.649 202.056C760.649 202.515 760.42 202.744 759.961 202.744H724.529V232.844H759.961C760.42 232.844 760.649 233.131 760.649 233.704V253.312C760.649 253.771 760.42 254 759.961 254H704.405ZM806.796 255.72C800.604 255.72 794.928 254.172 789.768 251.076C784.723 247.865 780.652 243.68 777.556 238.52C774.46 233.245 772.912 227.455 772.912 221.148L773.084 166.624C773.084 160.317 774.575 154.584 777.556 149.424C780.652 144.264 784.78 140.136 789.94 137.04C795.1 133.944 800.719 132.396 806.796 132.396C812.988 132.396 818.607 133.944 823.652 137.04C828.697 140.136 832.711 144.264 835.692 149.424C838.788 154.584 840.336 160.317 840.336 166.624L840.508 221.148C840.508 227.455 838.96 233.245 835.864 238.52C832.883 243.68 828.812 247.865 823.652 251.076C818.607 254.172 812.988 255.72 806.796 255.72ZM806.796 234.908C810.236 234.908 813.217 233.532 815.74 230.78C818.377 227.913 819.696 224.703 819.696 221.148L819.524 166.624C819.524 162.84 818.32 159.629 815.912 156.992C813.504 154.355 810.465 153.036 806.796 153.036C803.241 153.036 800.203 154.355 797.68 156.992C795.157 159.515 793.896 162.725 793.896 166.624V221.148C793.896 224.932 795.157 228.2 797.68 230.952C800.203 233.589 803.241 234.908 806.796 234.908ZM856.853 254C855.936 254 855.477 253.599 855.477 252.796L855.305 135.664C855.305 134.747 855.764 134.288 856.681 134.288H872.161L901.229 202.056L900.369 135.664C900.369 134.747 900.885 134.288 901.917 134.288H918.945C919.633 134.288 919.977 134.747 919.977 135.664L920.149 252.968C920.149 253.656 919.863 254 919.289 254H904.153L874.397 190.704L875.601 252.624C875.601 253.541 875.085 254 874.053 254H856.853ZM964.75 254C964.291 254 964.062 253.713 964.062 253.14L964.406 134.976C964.406 134.517 964.635 134.288 965.094 134.288H986.078C986.537 134.288 986.938 134.517 987.282 134.976L1002.93 157.68L1018.59 134.976C1018.93 134.517 1019.33 134.288 1019.79 134.288H1040.95C1041.4 134.288 1041.63 134.517 1041.63 134.976L1041.98 253.14C1041.98 253.713 1041.75 254 1041.29 254H1021.85C1021.4 254 1021.17 253.713 1021.17 253.14L1020.99 165.42L1002.93 191.564L985.046 165.42L984.874 253.14C984.874 253.713 984.645 254 984.186 254H964.75ZM1052.32 253.14L1073.64 134.976C1073.76 134.517 1074.05 134.288 1074.5 134.288H1099.44C1099.9 134.288 1100.19 134.517 1100.3 134.976L1120.77 253.14C1120.89 253.713 1120.66 254 1120.08 254H1100.99C1100.53 254 1100.25 253.713 1100.13 253.14L1098.24 240.584H1074.85L1072.96 253.14C1072.84 253.713 1072.56 254 1072.1 254H1053C1052.55 254 1052.32 253.713 1052.32 253.14ZM1078.29 222.18H1094.8L1087.75 173.848L1086.72 167.484L1086.03 173.848L1078.29 222.18ZM1134.84 254C1133.92 254 1133.46 253.599 1133.46 252.796L1133.29 135.664C1133.29 134.747 1133.75 134.288 1134.66 134.288H1150.14L1179.21 202.056L1178.35 135.664C1178.35 134.747 1178.87 134.288 1179.9 134.288H1196.93C1197.62 134.288 1197.96 134.747 1197.96 135.664L1198.13 252.968C1198.13 253.656 1197.84 254 1197.27 254H1182.14L1152.38 190.704L1153.58 252.624C1153.58 253.541 1153.07 254 1152.04 254H1134.84ZM1208.94 253.14L1230.27 134.976C1230.39 134.517 1230.67 134.288 1231.13 134.288H1256.07C1256.53 134.288 1256.82 134.517 1256.93 134.976L1277.4 253.14C1277.51 253.713 1277.29 254 1276.71 254H1257.62C1257.16 254 1256.87 253.713 1256.76 253.14L1254.87 240.584H1231.48L1229.58 253.14C1229.47 253.713 1229.18 254 1228.72 254H1209.63C1209.17 254 1208.94 253.713 1208.94 253.14ZM1234.92 222.18H1251.43L1244.38 173.848L1243.34 167.484L1242.66 173.848L1234.92 222.18ZM1317.7 255.72C1311.5 255.72 1305.88 254.172 1300.84 251.076C1295.79 247.98 1291.72 243.852 1288.63 238.692C1285.65 233.417 1284.16 227.569 1284.16 221.148V166.624C1284.16 160.432 1285.65 154.756 1288.63 149.596C1291.72 144.321 1295.79 140.136 1300.84 137.04C1306 133.944 1311.62 132.396 1317.7 132.396C1324 132.396 1329.68 133.944 1334.72 137.04C1339.88 140.021 1343.95 144.092 1346.94 149.252C1349.92 154.412 1351.41 160.203 1351.41 166.624V174.536C1351.41 174.995 1351.12 175.224 1350.55 175.224H1331.28C1330.82 175.224 1330.6 174.995 1330.6 174.536V168C1330.6 163.643 1329.33 160.031 1326.81 157.164C1324.4 154.297 1321.36 152.864 1317.7 152.864C1314.37 152.864 1311.39 154.24 1308.75 156.992C1306.23 159.744 1304.97 162.955 1304.97 166.624V221.148C1304.97 224.932 1306.23 228.2 1308.75 230.952C1311.27 233.589 1314.26 234.908 1317.7 234.908C1321.36 234.908 1324.4 233.589 1326.81 230.952C1329.33 228.315 1330.6 225.047 1330.6 221.148V212.72H1318.56C1317.98 212.72 1317.7 212.433 1317.7 211.86V192.596C1317.7 192.023 1317.98 191.736 1318.56 191.736H1350.72C1351.18 191.736 1351.41 192.023 1351.41 192.596V221.148C1351.41 227.569 1349.86 233.417 1346.76 238.692C1343.78 243.852 1339.77 247.98 1334.72 251.076C1329.68 254.172 1324 255.72 1317.7 255.72ZM1366.06 254C1365.6 254 1365.37 253.713 1365.37 253.14L1365.54 134.976C1365.54 134.517 1365.77 134.288 1366.23 134.288H1421.44C1421.9 134.288 1422.13 134.575 1422.13 135.148V154.412C1422.13 154.871 1421.9 155.1 1421.44 155.1H1386.18V181.932H1421.44C1421.9 181.932 1422.13 182.161 1422.13 182.62L1422.3 202.056C1422.3 202.515 1422.08 202.744 1421.62 202.744H1386.18V232.844H1421.62C1422.08 232.844 1422.3 233.131 1422.3 233.704V253.312C1422.3 253.771 1422.08 254 1421.62 254H1366.06ZM1440.01 254C1439.55 254 1439.32 253.713 1439.32 253.14L1439.66 134.976C1439.66 134.517 1439.89 134.288 1440.35 134.288H1475.1C1481.29 134.288 1486.96 135.836 1492.12 138.932C1497.4 141.913 1501.58 145.984 1504.68 151.144C1507.78 156.189 1509.32 161.923 1509.32 168.344C1509.32 172.587 1508.69 176.428 1507.43 179.868C1506.17 183.193 1504.68 186.06 1502.96 188.468C1501.24 190.761 1499.69 192.481 1498.32 193.628C1504.51 200.508 1507.6 208.592 1507.6 217.88L1507.78 253.14C1507.78 253.713 1507.49 254 1506.92 254H1487.48C1487.02 254 1486.79 253.828 1486.79 253.484V217.88C1486.79 213.752 1485.3 210.197 1482.32 207.216C1479.45 204.12 1475.9 202.572 1471.66 202.572H1460.3L1460.13 253.14C1460.13 253.713 1459.9 254 1459.44 254H1440.01ZM1460.3 181.932H1475.1C1478.65 181.932 1481.8 180.613 1484.56 177.976C1487.31 175.339 1488.68 172.128 1488.68 168.344C1488.68 164.675 1487.31 161.521 1484.56 158.884C1481.92 156.247 1478.76 154.928 1475.1 154.928H1460.3V181.932Z" fill="#1E293B"/>
</svg>
