<?xml version="1.0" standalone="no"?>
<!DOCTYPE svg PUBLIC "-//W3C//DTD SVG 20010904//EN"
 "http://www.w3.org/TR/2001/REC-SVG-20010904/DTD/svg10.dtd">
<svg version="1.0" xmlns="http://www.w3.org/2000/svg"
 width="700.000000pt" height="700.000000pt" viewBox="0 0 700.000000 700.000000"
 preserveAspectRatio="xMidYMid meet">
<metadata>
Created by potrace 1.14, written by Peter Selinger 2001-2017
</metadata>
<g transform="translate(0.000000,700.000000) scale(0.100000,-0.100000)"
fill="#000000" stroke="none">
<path d="M805 5596 c-207 -51 -373 -205 -443 -411 l-27 -80 0 -1595 c0 -1769
-5 -1644 65 -1785 78 -159 253 -293 424 -324 84 -16 5268 -16 5352 0 172 32
342 161 423 323 71 141 66 15 66 1776 0 1484 -1 1589 -18 1650 -48 179 -160
316 -324 399 -130 65 75 61 -2828 60 -2053 -1 -2651 -3 -2690 -13z m5316 -216
c126 -24 227 -102 282 -218 l32 -67 0 -1595 0 -1595 -32 -67 c-55 -118 -161
-197 -289 -218 -81 -13 -5147 -13 -5228 0 -128 21 -234 100 -289 218 l-32 67
0 1595 0 1595 32 67 c53 112 156 194 273 217 65 13 5184 14 5251 1z"/>
<path d="M3100 4790 c-41 -11 -103 -33 -137 -50 -77 -36 -76 -55 2 -63 111
-11 244 -94 354 -220 71 -81 175 -222 234 -318 l47 -75 -90 -560 c-49 -307
-94 -576 -100 -596 -12 -41 -60 -94 -99 -110 -14 -6 -48 -13 -75 -17 -27 -3
-51 -12 -54 -18 -3 -10 60 -13 292 -13 256 0 296 2 296 15 0 11 -11 15 -41 15
-61 0 -99 42 -99 107 0 26 29 236 63 465 l62 417 317 -542 c174 -298 322 -542
329 -542 9 0 17 19 21 54 14 97 63 186 266 488 265 396 276 412 282 413 3 0
36 -143 74 -318 79 -365 106 -455 181 -607 115 -232 296 -401 511 -478 97 -35
219 -51 323 -44 135 10 291 56 291 86 0 4 -34 11 -75 15 -151 14 -275 75 -352
173 -76 95 -151 266 -197 450 -14 54 -91 438 -171 853 -80 415 -150 779 -156
808 -6 32 -16 52 -24 52 -8 0 -188 -260 -401 -577 -213 -318 -388 -579 -389
-581 -1 -1 -116 182 -254 408 -139 225 -280 447 -313 492 -117 158 -265 287
-413 361 -110 55 -167 69 -305 73 -103 3 -138 1 -200 -16z"/>
<path d="M1267 4574 c-228 -41 -412 -150 -506 -299 -43 -67 -107 -238 -96
-255 13 -21 32 -8 54 38 35 72 104 164 163 217 88 79 203 127 386 159 l32 6 0
-764 0 -763 -23 -43 c-26 -50 -90 -90 -144 -90 -23 0 -33 -5 -33 -16 0 -14 64
-15 618 -11 l617 3 107 26 c384 95 620 328 689 683 8 41 13 130 13 215 -2 284
-79 478 -258 648 -95 90 -198 150 -334 195 -181 60 -261 67 -763 66 -334 -1
-463 -4 -522 -15z m966 -161 c100 -47 173 -125 230 -244 71 -147 96 -279 97
-496 0 -415 -128 -682 -368 -762 -50 -17 -86 -21 -202 -21 l-140 0 0 781 0
781 158 -4 c153 -3 159 -4 225 -35z"/>
</g>
</svg>
