<?xml version="1.0" standalone="no"?>
<!DOCTYPE svg PUBLIC "-//W3C//DTD SVG 20010904//EN"
 "http://www.w3.org/TR/2001/REC-SVG-20010904/DTD/svg10.dtd">
<svg version="1.0" xmlns="http://www.w3.org/2000/svg"
 width="700.000000pt" height="700.000000pt" viewBox="0 0 700.000000 700.000000"
 preserveAspectRatio="xMidYMid meet">
<metadata>
Created by potrace 1.14, written by Peter Selinger 2001-2017
</metadata>
<g transform="translate(0.000000,700.000000) scale(0.100000,-0.100000)"
fill="#000000" stroke="none">
<path d="M865 5600 c-197 -27 -368 -147 -454 -321 -75 -152 -71 -44 -71 -1779
0 -1733 -4 -1627 70 -1778 75 -152 228 -271 400 -314 82 -20 5298 -20 5380 0
227 56 408 241 455 467 22 105 22 3145 0 3250 -36 174 -158 336 -307 410 -156
76 121 69 -2798 71 -1438 1 -2642 -2 -2675 -6z m5352 -244 c74 -34 164 -123
193 -191 11 -25 24 -74 30 -108 14 -87 14 -3029 -1 -3116 -21 -130 -106 -243
-226 -299 l-58 -27 -2655 0 -2655 0 -61 28 c-116 54 -203 169 -223 297 -15 89
-15 3030 0 3120 13 86 42 143 103 209 52 54 100 84 171 107 32 10 567 12 2680
11 l2640 -2 62 -29z"/>
<path d="M3185 4804 c-114 -19 -280 -83 -273 -106 3 -8 31 -16 66 -20 129 -14
263 -111 410 -296 92 -115 212 -301 212 -327 0 -61 -182 -1143 -198 -1174 -29
-59 -83 -94 -152 -99 -42 -3 -60 -8 -60 -18 0 -12 49 -14 285 -14 264 0 345 8
244 24 -46 7 -84 42 -94 85 -5 25 119 898 129 909 3 2 32 -43 65 -100 444
-759 570 -973 579 -976 6 -2 14 14 17 35 19 118 54 182 303 553 268 400 250
375 256 369 2 -2 34 -141 70 -309 74 -339 116 -485 175 -608 58 -119 113 -196
205 -287 97 -96 206 -167 324 -209 85 -30 92 -31 257 -31 158 1 176 3 253 28
101 34 111 57 26 57 -186 0 -345 109 -446 306 -95 185 -112 256 -304 1257
-119 618 -151 767 -163 765 -8 -2 -186 -259 -396 -573 -210 -313 -386 -570
-391 -572 -5 -1 -106 156 -224 349 -286 467 -354 569 -447 668 -136 146 -308
256 -458 295 -63 16 -218 27 -270 19z"/>
<path d="M1330 4579 c-332 -38 -571 -219 -646 -489 -28 -99 -5 -96 52 6 110
196 284 310 518 339 l56 7 0 -738 c-1 -407 -5 -759 -9 -783 -15 -77 -72 -132
-148 -141 -25 -3 -48 -11 -51 -18 -3 -11 100 -13 594 -9 656 5 674 6 858 68
289 97 482 297 558 579 20 74 23 108 23 270 0 149 -4 199 -19 254 -44 163
-113 286 -220 389 -159 155 -366 241 -641 267 -130 12 -817 11 -925 -1z m801
-129 c214 -41 362 -226 416 -523 22 -124 22 -389 0 -513 -54 -297 -195 -479
-405 -523 -29 -6 -109 -11 -177 -11 l-125 0 0 784 0 785 48 4 c101 8 192 7
243 -3z"/>
</g>
</svg>
