<?xml version="1.0" encoding="UTF-8" standalone="no"?>
<svg
   width="512"
   height="512"
   version="1.1"
   viewBox="0 0 135.47 135.47"
   id="svg56"
   sodipodi:docname="DungeonManagerIcon.svg"
   inkscape:version="1.2.1 (9c6d41e410, 2022-07-14, custom)"
   xmlns:inkscape="http://www.inkscape.org/namespaces/inkscape"
   xmlns:sodipodi="http://sodipodi.sourceforge.net/DTD/sodipodi-0.dtd"
   xmlns="http://www.w3.org/2000/svg"
   xmlns:svg="http://www.w3.org/2000/svg">
  <defs
     id="defs60" />
  <sodipodi:namedview
     id="namedview58"
     pagecolor="#ffffff"
     bordercolor="#666666"
     borderopacity="1.0"
     inkscape:showpageshadow="2"
     inkscape:pageopacity="0.0"
     inkscape:pagecheckerboard="0"
     inkscape:deskcolor="#d1d1d1"
     showgrid="false"
     inkscape:zoom="1.2858086"
     inkscape:cx="243.03773"
     inkscape:cy="310.69944"
     inkscape:window-width="1500"
     inkscape:window-height="931"
     inkscape:window-x="0"
     inkscape:window-y="0"
     inkscape:window-maximized="1"
     inkscape:current-layer="svg56" />
  <rect
     x="8.6548"
     y="29.041"
     width="118.16"
     height="77.385"
     ry="9.6185"
     fill="#fff"
     stroke="#991b1b"
     stroke-linecap="round"
     stroke-linejoin="bevel"
     stroke-width="4.2333"
     id="rect48"
     style="stroke:#6d28d9;stroke-opacity:1" />
  <g
     stroke-width=".26458"
     aria-label="DM"
     id="g54">
    <path
       d="m40.578 82.23h-19.253v-0.508h0.6604q1.3208 0 2.2352-0.9144 0.9652-0.9652 1.016-2.286v-29.007q-5.334 0.5588-8.0772 2.9972-2.3368 2.0828-3.7592 5.334l-0.508-0.2032q1.016-5.4864 5.2324-8.2296 4.2672-2.7432 10.668-2.7432h11.786q9.5504 0 14.884 4.7244 5.3848 4.6736 5.3848 13.056t-5.3848 13.106q-5.3848 4.6736-14.884 4.6736zm-4.9276-2.54h3.9116q4.7244 0 7.4168-4.0132 2.6924-4.064 2.6924-11.227t-2.6924-11.176q-2.6924-4.064-7.4168-4.064l-3.9116 0.1016z"
       id="path50" />
    <path
       d="m56.225 44.333q3.6068-1.9304 7.0612-1.9304 3.5052 0 6.4008 1.4732 5.7912 2.9972 9.906 9.8044l9.0932 14.783 15.088-22.504h0.4572l5.7404 29.718q1.7272 9.144 5.1308 12.7 2.6924 2.794 6.858 2.794 0.3556 0 0.762 0v0.508q-3.1496 1.3208-6.5532 1.3208-6.7564 0-11.735-5.2832-4.1656-4.3688-5.842-12.344l-2.3368-10.719-8.6868 12.903q-0.8636 1.2192-1.524 2.9464t-0.6096 2.9464h-0.4572l-12.344-21.133-2.54 17.069v0.2032q0 0.8128 0.5588 1.524 0.6096 0.6604 1.4224 0.6604h0.762v0.4572h-11.125v-0.508h0.8128q1.3716 0 2.3876-0.8128 1.0668-0.8636 1.3208-2.286l3.5052-21.793q-2.5908-4.5212-5.7404-8.0264-3.6068-3.9624-7.2136-3.9624-0.2032 0-0.4064 0z"
       id="path52" />
  </g>
</svg>
